<svg xmlns="http://www.w3.org/2000/svg" width="405" height="313" style="shape-rendering:geometricPrecision;text-rendering:geometricPrecision;image-rendering:optimizeQuality;fill-rule:evenodd;clip-rule:evenodd"><path fill="#599df9" d="M266.5 11.5h1c15.722-.706 31.055 1.294 46 6h1c3.414 3.04 7.414 5.04 12 6a94.052 94.052 0 0 1 15 10.5c3.607 3.098 6.607 6.598 9 10.5-1.311 3.311-3.645 5.645-7 7-9.842.322-19.508.99-29 2h-6c-4.679-.166-9.345 0-14 .5-2.91 1.173-3.577 3.006-2 5.5a185.269 185.269 0 0 1 10.5 12c.667.667.667 1.333 0 2-10.44 8.13-20.94 16.13-31.5 24a19.17 19.17 0 0 0-2.5-5l-25-31c-.816-1.323-1.983-1.99-3.5-2a527.142 527.142 0 0 1-17-21 25.196 25.196 0 0 0-3-5.5 20.967 20.967 0 0 1 3-4.5c5.25-4.56 11.25-7.894 18-10a722.923 722.923 0 0 1 25-7Z" style="opacity:1"/><path fill="#99bff8" d="M267.5 11.5c15.882-2.398 31.215-.398 46 6-14.945-4.706-30.278-6.706-46-6Z" style="opacity:.875"/><path fill="#8cb8f8" d="M266.5 11.5a722.923 722.923 0 0 0-25 7c7.754-4.025 16.088-6.358 25-7Z" style="opacity:.996"/><path fill="#9abff7" d="M314.5 17.5c4.318 1.492 8.318 3.492 12 6-4.586-.96-8.586-2.96-12-6Z" style="opacity:.714"/><path fill="#6285d7" d="M223.5 38.5a527.142 527.142 0 0 0 17 21 1103.832 1103.832 0 0 0 27.5 34 19.17 19.17 0 0 1 2.5 5 1480.06 1480.06 0 0 1-71 56c-1.59-.128-2.923-.795-4-2-5.132-8.733-8.466-18.067-10-28v-37c3.001-18.338 11.001-34.005 24-47 3.248-1.903 6.248-4.237 9-7a17.857 17.857 0 0 0 5 5Z" style="opacity:1"/><path fill="#80a6eb" d="M223.5 28.5a20.967 20.967 0 0 0-3 4.5 25.196 25.196 0 0 1 3 5.5 17.857 17.857 0 0 1-5-5c-2.752 2.763-5.752 5.097-9 7 3.778-5.117 8.445-9.117 14-12Z" style="opacity:1"/><path fill="#9ad8f5" d="M350.5 44.5c12.852 13.715 20.352 30.048 22.5 49 3.446 35.203-8.387 63.87-35.5 86a4528.037 4528.037 0 0 0-54-67 521.698 521.698 0 0 0 23-19c4.747-1.167 7.414-4.167 8-9a171.995 171.995 0 0 0 9.5 14c1.684 2.201 3.684 2.867 6 2a2102.115 2102.115 0 0 1 13.5-48v-1c3.355-1.355 5.689-3.689 7-7Z" style="opacity:1"/><path fill="#90bcf8" d="M343.5 51.5v1a236.207 236.207 0 0 1-23 1h-6a396.404 396.404 0 0 1 29-2Z" style="opacity:.875"/><path fill="#edf2f9" d="M308.5 54.5v-1h12c-.709.904-1.709 1.237-3 1-.477 10.1-1.477 20.1-3 30-.586 4.833-3.253 7.833-8 9 .641-.982 1.307-1.982 2-3-.044-4.746-1.711-8.746-5-12a672.017 672.017 0 0 1 6-14.5c-1.012-2.361-.679-5.028 1-8-.544-.717-1.211-1.217-2-1.5Z" style="opacity:.471"/><path fill="#9cbff7" d="M308.5 53.5v1c-5.019.252-10.019.752-15 1.5-.837 1.011-1.17 2.178-1 3.5-1.577-2.494-.91-4.327 2-5.5 4.655-.5 9.321-.666 14-.5Z" style="opacity:.714"/><path fill="#72a3ee" d="M240.5 59.5c1.517.01 2.684.677 3.5 2l25 31a19.17 19.17 0 0 1 2.5 5c0 .667-.333 1-1 1a19.17 19.17 0 0 0-2.5-5 1103.832 1103.832 0 0 1-27.5-34Z" style="opacity:1"/><path fill="#81a0e5" d="M185.5 87.5v35c-1.484-5.425-2.151-11.091-2-17-.12-6.233.547-12.233 2-18Z" style="opacity:1"/><path fill="#dae7fa" d="M267.5 106.5c2.398 1.382 2.565 3.049.5 5a12.93 12.93 0 0 1-.5-5Z" style="opacity:.212"/><path fill="#3671fe" d="M283.5 112.5a4528.037 4528.037 0 0 1 54 67c-6.62 5.652-13.953 10.318-22 14-1.78 1.49-2.446 3.49-2 6a308.96 308.96 0 0 1-5 19c-.891.761-1.558 1.761-2 3-.825.886-1.825 1.219-3 1v-1c.343-1.983-.324-3.317-2-4l-8-16a5777.302 5777.302 0 0 0-27-2c-19.396-2.518-36.73-10.351-52-23.5-1.964-1.451-3.297-3.284-4-5.5v-1c1.904-.238 3.238-1.238 4-3 3.391-1.029 6.057-3.029 8-6a149.71 149.71 0 0 0 23-18c2.927-1.257 5.261-3.257 7-6 0-.667.333-1 1-1 2.249-.58 3.915-1.913 5-4 1.904-.238 3.238-1.238 4-3a32.728 32.728 0 0 0 11-8c2.249-.58 3.915-1.913 5-4 1.904-.238 3.238-1.238 4-3 0-.667.333-1 1-1Z" style="opacity:1"/><path fill="#8cb3f8" d="M282.5 113.5c-.762 1.762-2.096 2.762-4 3 .762-1.762 2.096-2.762 4-3Z" style="opacity:1"/><path fill="#8cadfb" d="M278.5 116.5c-1.085 2.087-2.751 3.42-5 4 1.085-2.087 2.751-3.42 5-4Z" style="opacity:.898"/><path fill="#d0dff9" d="M273.5 120.5a32.728 32.728 0 0 1-11 8 497.783 497.783 0 0 0 5-5.5l-.5-1.5c-.816 1.323-1.983 1.989-3.5 2a14.698 14.698 0 0 1 3-3.5 30.125 30.125 0 0 1-7.5-4.5c-3.179 1.846-5.679 4.346-7.5 7.5.405.945 1.072 1.612 2 2l-1 1a11.333 11.333 0 0 1 1.5 3.5 9.175 9.175 0 0 1 4.5-2c-2.479 3.264-5.479 4.098-9 2.5l1-1c-5.259-1.748-5.259-4.748 0-9a46.447 46.447 0 0 1 9.5-6.5 13.24 13.24 0 0 1 5 3l1-1c1.694 3.896 2.86 3.562 3.5-1 .531 2.599.698 5.265.5 8 .816-1.323 1.983-1.989 3.5-2Z" style="opacity:.102"/><path fill="#f8fbfd" d="M263.5 123.5c-1.085 2.087-2.751 3.42-5 4a9.175 9.175 0 0 0-4.5 2 11.333 11.333 0 0 0-1.5-3.5l1-1c-.928-.388-1.595-1.055-2-2 1.821-3.154 4.321-5.654 7.5-7.5a30.125 30.125 0 0 0 7.5 4.5 14.698 14.698 0 0 0-3 3.5Z" style="opacity:.359"/><path fill="#3871fe" d="M73.5 125.5h96c2.637 14.247 7.637 27.581 15 40-6.823 6.979-14.657 12.646-23.5 17-8.21-4.063-15.71-9.063-22.5-15-.473-1.406-1.473-2.073-3-2a41.166 41.166 0 0 1-10-7c-.473-1.406-1.473-2.073-3-2-1.904-.238-3.238-1.238-4-3-.473-1.406-1.473-2.073-3-2a11.743 11.743 0 0 1-5-3c-.629-2.497-2.296-3.83-5-4a6531.421 6531.421 0 0 0-11-6.5c-3.902-.888-7.569-.388-11 1.5a56.618 56.618 0 0 1-15-10c.692-1.018 1.36-2.018 2-3 .709-.904 1.709-1.237 3-1Z" style="opacity:1"/><path fill="#7dbbf7" d="M73.5 125.5a3137.289 3137.289 0 0 1 112-1c1.534 9.933 4.868 19.267 10 28 1.077 1.205 2.41 1.872 4 2a124.016 124.016 0 0 1-15 11c-7.363-12.419-12.363-25.753-15-40h-96Z" style="opacity:1"/><path fill="#b5cef8" d="M262.5 128.5c-.762 1.762-2.096 2.762-4 3 .762-1.762 2.096-2.762 4-3Z" style="opacity:.412"/><path fill="#6185d7" d="M70.5 126.5c-.64.982-1.308 1.982-2 3a56.618 56.618 0 0 0 15 10c-3.311 5.983-2.311 11.15 3 15.5a4876.227 4876.227 0 0 1 65 45.5c.086.996-.248 1.829-1 2.5a1587.607 1587.607 0 0 0-63 44.5 79.752 79.752 0 0 0-17 12c-1.815 1.13-3.815 1.796-6 2l-1-2a1477.2 1477.2 0 0 0-2.5-9c-.5-36.665-.667-73.332-.5-110 .63-6.626 3.964-11.293 10-14Z" style="opacity:1"/><path fill="#aac4f6" d="M258.5 131.5c-1.085 2.087-2.751 3.42-5 4 1.085-2.087 2.751-3.42 5-4Z" style="opacity:.565"/><path fill="#86a8fa" d="M252.5 136.5c-1.739 2.743-4.073 4.743-7 6 1.739-2.743 4.073-4.743 7-6Z" style="opacity:.898"/><path fill="#7395fc" d="M105.5 144.5c2.704.17 4.371 1.503 5 4a21.614 21.614 0 0 1-5-4Z" style="opacity:1"/><path fill="#7d9ffb" d="M245.5 142.5a149.71 149.71 0 0 1-23 18 149.71 149.71 0 0 1 23-18Z" style="opacity:.898"/><path fill="#88a7fb" d="M115.5 151.5c1.527-.073 2.527.594 3 2-1.527.073-2.527-.594-3-2Z" style="opacity:.996"/><path fill="#8caafc" d="M122.5 156.5c1.527-.073 2.527.594 3 2-1.527.073-2.527-.594-3-2Z" style="opacity:.898"/><path fill="#7da0fb" d="M222.5 160.5c-1.943 2.971-4.609 4.971-8 6a27.68 27.68 0 0 1 8-6Z" style="opacity:.898"/><path fill="#88a8fc" d="M135.5 165.5c1.527-.073 2.527.594 3 2-1.527.073-2.527-.594-3-2Z" style="opacity:.996"/><path fill="#83abf8" d="M214.5 166.5c-.762 1.762-2.096 2.762-4 3 .762-1.762 2.096-2.762 4-3Z" style="opacity:1"/><path fill="#4977e6" d="M210.5 170.5c.703 2.216 2.036 4.049 4 5.5 15.27 13.149 32.604 20.982 52 23.5h-3c-.987 4.805-1.321 9.805-1 15h-3c-3.281.08-6.281-.587-9-2-2.099-1.112-4.433-1.779-7-2-2.358.247-4.358-.419-6-2a313.014 313.014 0 0 0-21-11 9.82 9.82 0 0 0-4-3c-1.079-2.043-2.746-3.376-5-4a6.547 6.547 0 0 0-3-3 2968.346 2968.346 0 0 0-6-7 84.607 84.607 0 0 1 12-10Z" style="opacity:1"/><path fill="#87adee" d="M210.5 169.5v1a84.607 84.607 0 0 0-12 10c2.023 2.353 4.023 4.686 6 7a35.23 35.23 0 0 1-8-6c3.707-5.035 8.374-9.035 14-12Z" style="opacity:1"/><path fill="#99d8f5" d="M196.5 181.5a35.23 35.23 0 0 0 8 6 6.547 6.547 0 0 1 3 3c.629 2.497 2.296 3.83 5 4a9.82 9.82 0 0 1 4 3c5.961 5.482 12.961 9.149 21 11 1.642 1.581 3.642 2.247 6 2 .111.617.444 1.117 1 1.5 1.973.495 3.973.662 6 .5 2.719 1.413 5.719 2.08 9 2 1.171.845 2.505 1.511 4 2 .167 12.005 0 24.005-.5 36-.42 4.516-2.587 7.85-6.5 10a5697.305 5697.305 0 0 1-82-57.5 23.423 23.423 0 0 0-6-2.5 336.526 336.526 0 0 1 28-21Z" style="opacity:1"/><path fill="#94b2f0" d="M60.5 140.5c-.167 36.668 0 73.335.5 110a1477.2 1477.2 0 0 1 2.5 9c-1.663-1.993-2.83-4.326-3.5-7-.831-37.502-.664-74.836.5-112Z" style="opacity:.471"/><path fill="#78acef" d="M207.5 190.5c2.254.624 3.921 1.957 5 4-2.704-.17-4.371-1.503-5-4Z" style="opacity:.996"/><path fill="#93aefb" d="M315.5 193.5c-.375 2.198-1.042 4.198-2 6-.446-2.51.22-4.51 2-6Z" style="opacity:.898"/><path fill="#77abed" d="M216.5 197.5a313.014 313.014 0 0 1 21 11c-8.039-1.851-15.039-5.518-21-11Z" style="opacity:1"/><path fill="#79a1f7" d="M263.5 199.5v17c-1.495-.489-2.829-1.155-4-2h3c-.321-5.195.013-10.195 1-15Z" style="opacity:.651"/><path fill="#589df9" d="M155.5 203.5c4.508 2.704 8.842 2.371 13-1a23.423 23.423 0 0 1 6 2.5 5697.305 5697.305 0 0 0 82 57.5c-.333 1-1 1.667-2 2a6543.043 6543.043 0 0 1-110 1.5c-.556.383-.889.883-1 1.5a396.796 396.796 0 0 1-14.5 35 409.374 409.374 0 0 1-15.5-35c-13.63-1.82-27.63-2.653-42-2.5-3.591-1.328-3.925-3.162-1-5.5a79.752 79.752 0 0 1 17-12 866.662 866.662 0 0 0 65.5-45c.671.752 1.504 1.086 2.5 1Z" style="opacity:1"/><path fill="#73a5eb" d="M243.5 210.5c2.567.221 4.901.888 7 2a18.453 18.453 0 0 1-6-.5c-.556-.383-.889-.883-1-1.5Z" style="opacity:1"/><path fill="#89a2fb" d="M301.5 217.5c1.676.683 2.343 2.017 2 4-1.174-1.014-1.84-2.347-2-4Z" style="opacity:1"/><path fill="#82a0fb" d="M308.5 218.5c-.221 2.892-1.054 5.559-2.5 8a12.64 12.64 0 0 1-2.5-4c1.175.219 2.175-.114 3-1 .442-1.239 1.109-2.239 2-3Z" style="opacity:1"/><path fill="#6f9fed" d="M151.5 200.5c1.73.526 3.064 1.526 4 3-.996.086-1.829-.248-2.5-1a866.662 866.662 0 0 1-65.5 45 1587.607 1587.607 0 0 1 63-44.5c.752-.671 1.086-1.504 1-2.5Z" style="opacity:1"/><path fill="#83b2f8" d="M70.5 259.5c-2.925 2.338-2.591 4.172 1 5.5 14.37-.153 28.37.68 42 2.5-13.004.167-26.004 0-39-.5-4.127-.56-7.46-2.393-10-5.5 2.185-.204 4.185-.87 6-2Z" style="opacity:1"/><path fill="#88b5f8" d="M254.5 264.5c-1.648 1.427-3.648 2.26-6 2.5a5509.9 5509.9 0 0 1-105 .5c.111-.617.444-1.117 1-1.5 36.689-.192 73.356-.692 110-1.5Z" style="opacity:1"/></svg>